<svg xmlns="http://www.w3.org/2000/svg" viewBox="0 0 110 81">
  <g fill="#FFF" transform="translate(.352 .912)">
    <path d="M37.76,31.872 C39.1893333,31.872 40.5653333,31.5946667 41.888,31.04 L41.888,31.04 L41.888,30.72 L41.888,30.72 L41.408,30.72 C39.6586667,30.72 38.2186667,30.1333333 37.088,28.96 C35.6586667,27.4666667 34.5813333,24.8 33.856,20.96 L33.856,20.96 L30.24,2.24 L29.952,2.24 L20.448,16.416 L14.72,7.104 C12.992,4.24533333 10.912,2.18666667 8.48,0.928 C7.264,0.309333333 5.92533333,-5.68434189e-14 4.464,-5.68434189e-14 C3.00266667,-5.68434189e-14 1.51466667,0.405333333 0,1.216 L0,1.216 L0.096,1.536 L0.096,1.536 L0.352,1.536 C1.86666667,1.536 3.38133333,2.368 4.896,4.032 C6.21866667,5.504 7.424,7.18933333 8.512,9.088 L8.512,9.088 L6.304,22.816 C6.19733333,23.4133333 5.92533333,23.888 5.488,24.24 C5.05066667,24.592 4.544,24.768 3.968,24.768 L3.968,24.768 L3.456,24.768 L3.456,25.088 L10.464,25.088 L10.464,24.8 L9.984,24.8 C9.64266667,24.8 9.34933333,24.656 9.104,24.368 C8.85866667,24.08 8.736,23.7653333 8.736,23.424 L8.736,23.424 L8.736,23.296 L10.336,12.544 L18.112,25.856 L18.4,25.856 C18.3786667,25.344 18.5066667,24.7253333 18.784,24 C19.0613333,23.2746667 19.3813333,22.656 19.744,22.144 L19.744,22.144 L25.216,14.016 L26.688,20.768 C27.392,24.1173333 28.6186667,26.7093333 30.368,28.544 C32.4586667,30.7626667 34.9226667,31.872 37.76,31.872 Z"/>
    <path fill-opacity=".498" d="M43.204,25.088 L43.204,24.888 L42.944,24.888 C42.5973333,24.888 42.2973333,24.7646667 42.044,24.518 C41.7906667,24.2713333 41.664,23.9746667 41.664,23.628 L41.664,23.628 L41.664,12.528 C41.6773333,12.1813333 41.8073333,11.888 42.054,11.648 C42.3006667,11.408 42.5973333,11.288 42.944,11.288 L42.944,11.288 L43.204,11.288 L43.204,11.088 L36.024,11.088 L36.024,11.288 L36.284,11.288 C36.6306667,11.288 36.9273333,11.408 37.174,11.648 C37.4206667,11.888 37.5506667,12.1813333 37.564,12.528 L37.564,12.528 L37.564,23.628 C37.5506667,23.9746667 37.4206667,24.2713333 37.174,24.518 C36.9273333,24.7646667 36.6306667,24.888 36.284,24.888 L36.284,24.888 L36.024,24.888 L36.024,25.088 L43.204,25.088 Z M49.604,25.368 C51.5106667,25.368 53.0373333,24.9713333 54.184,24.178 C55.3306667,23.3846667 55.904,22.1813333 55.904,20.568 C55.904,18.9546667 55.1306667,17.7946667 53.584,17.088 L53.584,17.088 L49.844,15.348 C49.604,15.2546667 49.4106667,15.168 49.264,15.088 C48.4106667,14.648 48.0106667,14.1146667 48.064,13.488 C48.104,12.9813333 48.3673333,12.5746667 48.854,12.268 C49.3406667,11.9613333 50.0273333,11.808 50.914,11.808 C51.8006667,11.808 52.5306667,12.0346667 53.104,12.488 C53.6773333,12.9413333 53.964,13.5346667 53.964,14.268 L53.964,14.268 L54.164,14.268 L54.604,11.008 L53.044,11.008 C51.6706667,10.8746667 50.544,10.808 49.664,10.808 C48.3173333,10.808 47.2373333,11.1146667 46.424,11.728 C45.4506667,12.4746667 44.964,13.568 44.964,15.008 C44.964,15.7146667 45.1306667,16.3613333 45.464,16.948 C45.8773333,17.6946667 46.544,18.2746667 47.464,18.688 L47.464,18.688 L50.724,20.208 C51.4706667,20.5546667 52.0106667,20.9013333 52.344,21.248 C52.6773333,21.5946667 52.844,22.0113333 52.844,22.498 C52.844,22.9846667 52.6006667,23.418 52.114,23.798 C51.6273333,24.178 50.9306667,24.368 50.024,24.368 C48.6773333,24.368 47.614,23.978 46.834,23.198 C46.054,22.418 45.664,21.5346667 45.664,20.548 C45.664,20.4546667 45.6706667,20.368 45.684,20.288 L45.684,20.288 L45.504,20.288 C45.1573333,20.728 44.9106667,21.3413333 44.764,22.128 C44.7106667,22.448 44.684,22.778 44.684,23.118 C44.684,23.458 44.744,23.7746667 44.864,24.068 C45.2373333,24.4413333 45.844,24.7513333 46.684,24.998 C47.524,25.2446667 48.4973333,25.368 49.604,25.368 Z M66.154,25.3580402 C68.894,25.3646667 70.7573333,24.5413333 71.744,22.888 L71.744,22.888 L71.264,19.248 L71.104,19.248 C70.7306667,21.2213333 70.2106667,22.5546667 69.544,23.248 C68.8373333,23.9946667 67.6973333,24.368 66.124,24.368 C64.764,24.328 63.7006667,23.748 62.934,22.628 C62.1673333,21.508 61.784,19.9713333 61.784,18.018 C61.784,16.0646667 62.1973333,14.5413333 63.024,13.448 C63.8506667,12.3546667 65.004,11.808 66.484,11.808 C67.5773333,11.808 68.4906667,12.0946667 69.224,12.668 C69.9573333,13.2413333 70.5173333,14.2013333 70.904,15.548 L70.904,15.548 L71.084,15.548 L71.284,11.728 C69.844,11.1146667 68.1706667,10.808 66.264,10.808 C64.3573333,10.808 62.7473333,11.0946667 61.434,11.668 C60.1206667,12.2413333 59.1173333,13.0746667 58.424,14.168 C57.7306667,15.2613333 57.384,16.5613333 57.384,18.068 C57.384,20.3746667 58.1606667,22.1646667 59.714,23.438 C61.2673333,24.7113333 63.414,25.3513333 66.154,25.3580402 Z M80.224,25.088 L80.224,24.888 L79.964,24.888 C79.7373333,24.888 79.524,24.8346667 79.324,24.728 C78.9106667,24.488 78.6973333,24.1213333 78.684,23.628 L78.684,23.628 L78.684,18.588 L84.064,18.588 L84.064,23.648 C84.0506667,23.9946667 83.9206667,24.288 83.674,24.528 C83.4273333,24.768 83.1306667,24.888 82.784,24.888 L82.784,24.888 L82.524,24.888 L82.524,25.088 L89.704,25.088 L89.704,24.888 L89.444,24.888 C89.0973333,24.888 88.8006667,24.7646667 88.554,24.518 C88.3073333,24.2713333 88.1773333,23.9746667 88.164,23.628 L88.164,23.628 L88.164,12.548 C88.1773333,12.3213333 88.2373333,12.108 88.344,11.908 C88.5973333,11.4946667 88.964,11.288 89.444,11.288 L89.444,11.288 L89.704,11.288 L89.704,11.088 L82.524,11.088 L82.524,11.288 L82.784,11.288 C83.1306667,11.288 83.4273333,11.408 83.674,11.648 C83.9206667,11.888 84.0506667,12.1813333 84.064,12.528 L84.064,12.528 L84.064,17.588 L78.684,17.588 L78.684,12.528 C78.6973333,12.1813333 78.8273333,11.888 79.074,11.648 C79.3206667,11.408 79.6173333,11.288 79.964,11.288 L79.964,11.288 L80.224,11.288 L80.224,11.088 L73.044,11.088 L73.044,11.288 L73.304,11.288 C73.6506667,11.288 73.9473333,11.408 74.194,11.648 C74.4406667,11.888 74.5706667,12.1813333 74.584,12.528 L74.584,12.528 L74.584,23.628 C74.5706667,23.9746667 74.4406667,24.2713333 74.194,24.518 C73.9473333,24.7646667 73.6506667,24.888 73.304,24.888 L73.304,24.888 L73.044,24.888 L73.044,25.088 L80.224,25.088 Z M93.384,25.088 L93.384,24.888 L93.204,24.888 C93.0306667,24.888 92.8673333,24.838 92.714,24.738 C92.5606667,24.638 92.4606667,24.5246667 92.414,24.398 C92.3673333,24.2713333 92.344,24.1546667 92.344,24.048 C92.344,23.9413333 92.3773333,23.8013333 92.444,23.628 L92.444,23.628 L93.244,21.768 L97.524,21.768 L98.304,23.628 C98.3706667,23.8013333 98.404,23.9646667 98.404,24.118 C98.404,24.2713333 98.3306667,24.438 98.184,24.618 C98.0373333,24.798 97.8173333,24.888 97.524,24.888 L97.524,24.888 L97.344,24.888 L97.344,25.088 L104.924,25.088 L104.924,24.888 L104.764,24.888 C104.070667,24.888 103.510667,24.5213333 103.084,23.788 L103.084,23.788 L96.744,10.608 L96.564,10.608 C96.5106667,11.1013333 96.1306667,12.0946667 95.424,13.588 L95.424,13.588 L90.764,23.808 C90.564,24.168 90.314,24.438 90.014,24.618 C89.714,24.798 89.4106667,24.888 89.104,24.888 L89.104,24.888 L88.924,24.888 L88.924,25.088 L93.384,25.088 Z M97.104,20.768 L93.684,20.768 L95.424,16.768 L97.104,20.768 Z"/>
    <path d="M33.952,58.872 C35.6586667,58.872 37.472,58.456 39.392,57.624 L39.392,57.624 L39.328,57.304 C38.6453333,57.4533333 37.952,57.528 37.248,57.528 C36.544,57.528 35.84,57.4213333 35.136,57.208 C32.704,56.44 30.9333333,54.712 29.824,52.024 C29.3333333,50.808 29.088,49.5813333 29.088,48.344 L29.088,48.344 L29.088,43.16 C29.0666667,42.6906667 29.1946667,42.328 29.472,42.072 C29.7493333,41.816 30.144,41.688 30.656,41.688 L30.656,41.688 L31.168,41.688 L31.168,41.368 L20.416,41.368 L20.416,41.688 L20.896,41.688 C21.4293333,41.688 21.84,41.816 22.128,42.072 C22.416,42.328 22.5493333,42.6906667 22.528,43.16 L22.528,47.512 C22.528,48.536 22.1386667,49.3626667 21.36,49.992 C20.5813333,50.6213333 19.5146667,50.936 18.16,50.936 C16.8053333,50.936 15.5733333,50.5253333 14.464,49.704 C13.3546667,48.8826667 12.5013333,47.7253333 11.904,46.232 C11.3066667,44.7386667 11.008,43.0213333 11.008,41.08 C11.008,38.008 11.7013333,35.5333333 13.088,33.656 C14.4746667,31.7786667 16.2346667,30.84 18.368,30.84 C20.5013333,30.84 22.32,31.336 23.824,32.328 C25.328,33.32 26.336,34.8186667 26.848,36.824 L26.848,36.824 L27.136,36.824 L27.456,30.68 C26.816,30.424 25.984,30.1893333 24.96,29.976 C22.6773333,29.4853333 20.3306667,29.24 17.92,29.24 C13.7386667,29.24 10.368,30.3013333 7.808,32.424 C5.248,34.5466667 3.968,37.3573333 3.968,40.856 C3.968,44.3546667 5.22133333,47.176 7.728,49.32 C10.2346667,51.464 13.504,52.536 17.536,52.536 C19.584,52.536 21.536,52.248 23.392,51.672 C24.16,53.5493333 25.3226667,55.1173333 26.88,56.376 C28.4373333,57.6346667 30.2826667,58.4346667 32.416,58.776 C32.928,58.84 33.44,58.872 33.952,58.872 Z"/>
    <path fill-opacity=".5" d="M40.552,52.368 C43.1386667,52.368 45.172,51.7246667 46.652,50.438 C48.132,49.1513333 48.872,47.368 48.872,45.088 C48.872,43.5813333 48.5386667,42.278 47.872,41.178 C47.2053333,40.078 46.2486667,39.2413333 45.002,38.668 C43.7553333,38.0946667 42.272,37.808 40.552,37.808 C37.9653333,37.808 35.9353333,38.4513333 34.462,39.738 C32.9886667,41.0246667 32.252,42.808 32.252,45.088 C32.252,47.368 32.9886667,49.1513333 34.462,50.438 C35.9353333,51.7246667 37.9653333,52.368 40.552,52.368 Z M40.562,51.368 C39.342,51.368 38.3853333,50.8146667 37.692,49.708 C37.012,48.6013333 36.672,47.0613333 36.672,45.088 C36.672,43.1146667 37.0153333,41.5746667 37.702,40.468 C38.3886667,39.3613333 39.342,38.808 40.562,38.808 C41.782,38.808 42.7353333,39.3613333 43.422,40.468 C44.1086667,41.5746667 44.452,43.1146667 44.452,45.088 C44.452,47.0613333 44.1086667,48.6013333 43.422,49.708 C42.7353333,50.8146667 41.782,51.368 40.562,51.368 Z M56.932,52.088 L56.932,51.888 L56.672,51.888 C56.4453333,51.888 56.232,51.8346667 56.032,51.728 C55.6186667,51.488 55.4053333,51.1213333 55.392,50.628 L55.392,50.628 L55.392,45.588 L60.772,45.588 L60.772,50.648 C60.7586667,50.9946667 60.6286667,51.288 60.382,51.528 C60.1353333,51.768 59.8386667,51.888 59.492,51.888 L59.492,51.888 L59.232,51.888 L59.232,52.088 L66.412,52.088 L66.412,51.888 L66.152,51.888 C65.8053333,51.888 65.5086667,51.7646667 65.262,51.518 C65.0153333,51.2713333 64.8853333,50.9746667 64.872,50.628 L64.872,50.628 L64.872,39.548 C64.8853333,39.3213333 64.9453333,39.108 65.052,38.908 C65.3053333,38.4946667 65.672,38.288 66.152,38.288 L66.152,38.288 L66.412,38.288 L66.412,38.088 L59.232,38.088 L59.232,38.288 L59.492,38.288 C59.8386667,38.288 60.1353333,38.408 60.382,38.648 C60.6286667,38.888 60.7586667,39.1813333 60.772,39.528 L60.772,39.528 L60.772,44.588 L55.392,44.588 L55.392,39.528 C55.4053333,39.1813333 55.5353333,38.888 55.782,38.648 C56.0286667,38.408 56.3253333,38.288 56.672,38.288 L56.672,38.288 L56.932,38.288 L56.932,38.088 L49.752,38.088 L49.752,38.288 L50.012,38.288 C50.3586667,38.288 50.6553333,38.408 50.902,38.648 C51.1486667,38.888 51.2786667,39.1813333 51.292,39.528 L51.292,39.528 L51.292,50.628 C51.2786667,50.9746667 51.1486667,51.2713333 50.902,51.518 C50.6553333,51.7646667 50.3586667,51.888 50.012,51.888 L50.012,51.888 L49.752,51.888 L49.752,52.088 L56.932,52.088 Z M79.312,52.088 L80.072,47.448 L79.872,47.448 C79.5653333,48.5813333 79.0386667,49.468 78.292,50.108 C77.5453333,50.748 76.6853333,51.068 75.712,51.068 L75.712,51.068 L73.252,51.068 L73.252,39.548 C73.252,39.2013333 73.3786667,38.9046667 73.632,38.658 C73.8853333,38.4113333 74.1853333,38.288 74.532,38.288 L74.532,38.288 L74.792,38.288 L74.792,38.088 L67.612,38.088 L67.612,38.288 L67.872,38.288 C68.0986667,38.288 68.312,38.3413333 68.512,38.448 C68.9253333,38.688 69.1386667,39.0546667 69.152,39.548 L69.152,39.548 L69.152,50.628 C69.1386667,50.9746667 69.0086667,51.2713333 68.762,51.518 C68.5153333,51.7646667 68.2186667,51.888 67.872,51.888 L67.872,51.888 L67.612,51.888 L67.612,52.088 L79.312,52.088 Z M87.832,52.088 L87.832,51.888 L87.572,51.888 C87.2253333,51.888 86.9253333,51.7646667 86.672,51.518 C86.4186667,51.2713333 86.292,50.9746667 86.292,50.628 L86.292,50.628 L86.292,39.528 C86.3053333,39.1813333 86.4353333,38.888 86.682,38.648 C86.9286667,38.408 87.2253333,38.288 87.572,38.288 L87.572,38.288 L87.832,38.288 L87.832,38.088 L80.652,38.088 L80.652,38.288 L80.912,38.288 C81.2586667,38.288 81.5553333,38.408 81.802,38.648 C82.0486667,38.888 82.1786667,39.1813333 82.192,39.528 L82.192,39.528 L82.192,50.628 C82.1786667,50.9746667 82.0486667,51.2713333 81.802,51.518 C81.5553333,51.7646667 81.2586667,51.888 80.912,51.888 L80.912,51.888 L80.652,51.888 L80.652,52.088 L87.832,52.088 Z M97.012,52.088 L97.012,51.888 C96.2386667,51.8613333 95.5253333,51.3546667 94.872,50.368 L94.872,50.368 L90.192,43.328 L93.572,39.248 C94.1453333,38.5946667 94.8786667,38.268 95.772,38.268 L95.772,38.268 L95.852,38.268 L95.852,38.088 L91.032,38.088 L91.032,38.268 L91.232,38.268 C91.512,38.268 91.6986667,38.368 91.792,38.568 C91.832,38.648 91.852,38.7413333 91.852,38.848 C91.852,38.9546667 91.8053333,39.0746667 91.712,39.208 L91.712,39.208 L86.932,45.728 C86.932,45.7413333 87.2953333,46.338 88.022,47.518 C88.7486667,48.698 89.312,49.5546667 89.712,50.088 C90.6853333,51.4213333 92.3986667,52.088 94.852,52.088 L94.852,52.088 L97.012,52.088 Z M108.772,52.088 L109.532,47.448 L109.332,47.448 C109.025333,48.5813333 108.498667,49.468 107.752,50.108 C107.005333,50.748 106.145333,51.068 105.172,51.068 L105.172,51.068 L102.712,51.068 L102.712,45.688 L104.912,45.688 C105.538667,45.7013333 106.052,45.9113333 106.452,46.318 C106.852,46.7246667 107.052,47.2413333 107.052,47.868 L107.052,47.868 L107.052,47.968 L107.252,47.968 L107.252,42.408 L107.052,42.408 L107.052,42.488 C107.052,43.128 106.852,43.6513333 106.452,44.058 C106.052,44.4646667 105.532,44.6746667 104.892,44.688 L104.892,44.688 L102.712,44.688 L102.712,39.108 L105.612,39.108 C106.132,39.1213333 106.578667,39.2346667 106.952,39.448 C107.725333,39.8746667 108.112,40.6213333 108.112,41.688 L108.112,41.688 L108.112,41.848 L108.312,41.848 L108.312,37.728 C108.192,37.7813333 107.908667,37.8546667 107.462,37.948 C107.015333,38.0413333 106.505333,38.088 105.932,38.088 L105.932,38.088 L97.072,38.088 L97.072,38.288 L97.332,38.288 C97.612,38.288 97.8586667,38.368 98.072,38.528 C98.4186667,38.7813333 98.5986667,39.1213333 98.612,39.548 L98.612,39.548 L98.612,50.628 C98.5986667,50.9746667 98.4686667,51.2713333 98.222,51.518 C97.9753333,51.7646667 97.6786667,51.888 97.332,51.888 L97.332,51.888 L97.072,51.888 L97.072,52.088 L108.772,52.088 Z"/>
    <path d="M16.512,79.6 C20.8,79.6 23.9786667,78.6186667 26.048,76.656 C27.264,75.5253333 27.872,74.1066667 27.872,72.4 C27.872,70.6933333 27.264,69.3386667 26.048,68.336 C24.832,67.3333333 23.4986667,66.832 22.048,66.832 L22.048,66.832 L21.728,66.832 C22.24,66.64 22.6986667,66.32 23.104,65.872 C24.0213333,64.9333333 24.48,63.7706667 24.48,62.384 C24.48,61.1253333 24.0213333,60.048 23.104,59.152 C21.3973333,57.5093333 18.7306667,56.688 15.104,56.688 L15.104,56.688 L5.248,56.688 L5.248,57.008 L5.664,57.008 C6.19733333,57.008 6.66666667,57.1946667 7.072,57.568 C7.47733333,57.9413333 7.69066667,58.416 7.712,58.992 L7.712,58.992 L7.712,75.792 C5.088,73.8293333 3.776,70.864 3.776,66.896 L3.776,66.896 L3.456,66.928 C3.392,67.568 3.36,68.1973333 3.36,68.816 C3.36,76.0053333 7.744,79.6 16.512,79.6 Z M14.272,77.872 L14.272,58.32 C15.4453333,58.4053333 16.2773333,58.7893333 16.768,59.472 C17.2586667,60.1546667 17.536,61.1893333 17.6,62.576 L17.6,62.576 L17.6,63.536 C17.6,64.1333333 17.4613333,64.8266667 17.184,65.616 C17.0346667,65.9786667 16.8053333,66.2826667 16.496,66.528 C16.1866667,66.7733333 15.808,66.896 15.36,66.896 L15.36,66.896 L15.36,67.184 C16.6826667,67.184 17.8453333,67.5893333 18.848,68.4 C19.8506667,69.2106667 20.352,70.5226667 20.352,72.336 C20.352,73.9786667 19.8186667,75.3066667 18.752,76.32 C17.6853333,77.3333333 16.192,77.8506667 14.272,77.872 L14.272,77.872 Z"/>
    <path fill-opacity=".505" d="M31.488,79.088 L31.488,78.888 L31.308,78.888 C31.1346667,78.888 30.9713333,78.838 30.818,78.738 C30.6646667,78.638 30.5646667,78.5246667 30.518,78.398 C30.4713333,78.2713333 30.448,78.1546667 30.448,78.048 C30.448,77.9413333 30.4813333,77.8013333 30.548,77.628 L30.548,77.628 L31.348,75.768 L35.628,75.768 L36.408,77.628 C36.4746667,77.8013333 36.508,77.9646667 36.508,78.118 C36.508,78.2713333 36.4346667,78.438 36.288,78.618 C36.1413333,78.798 35.9213333,78.888 35.628,78.888 L35.628,78.888 L35.448,78.888 L35.448,79.088 L43.028,79.088 L43.028,78.888 L42.868,78.888 C42.1746667,78.888 41.6146667,78.5213333 41.188,77.788 L41.188,77.788 L34.848,64.608 L34.668,64.608 C34.6146667,65.1013333 34.2346667,66.0946667 33.528,67.588 L33.528,67.588 L28.868,77.808 C28.668,78.168 28.418,78.438 28.118,78.618 C27.818,78.798 27.5146667,78.888 27.208,78.888 L27.208,78.888 L27.028,78.888 L27.028,79.088 L31.488,79.088 Z M35.208,74.768 L31.788,74.768 L33.528,70.768 L35.208,74.768 Z M58.088,79.368 L58.028,79.088 C57.8946667,78.5546667 57.828,77.7946667 57.828,76.808 L57.828,76.808 L57.828,66.488 C57.8413333,66.1546667 57.968,65.8713333 58.208,65.638 C58.448,65.4046667 58.7346667,65.288 59.068,65.288 L59.068,65.288 L59.428,65.288 L59.428,65.088 L52.108,65.088 L52.108,65.288 L52.488,65.288 C52.8213333,65.288 53.108,65.4046667 53.348,65.638 C53.588,65.8713333 53.7146667,66.1613333 53.728,66.508 L53.728,66.508 L53.728,73.308 L44.148,64.788 L43.948,64.788 L44.008,65.068 C44.1413333,65.6146667 44.208,66.3546667 44.208,67.288 L44.208,67.288 L44.208,77.668 C44.208,78.0146667 44.088,78.3046667 43.848,78.538 C43.608,78.7713333 43.3213333,78.888 42.988,78.888 L42.988,78.888 L42.608,78.888 L42.608,79.088 L49.928,79.088 L49.928,78.888 L49.548,78.888 C49.3346667,78.888 49.1346667,78.8346667 48.948,78.728 C48.5346667,78.5013333 48.328,78.148 48.328,77.668 L48.328,77.668 L48.328,70.848 L57.908,79.368 L58.088,79.368 Z M67.608,79.088 C70.1146667,79.088 72.0713333,78.4713333 73.478,77.238 C74.8846667,76.0046667 75.588,74.288 75.588,72.088 C75.588,69.888 74.8846667,68.1713333 73.478,66.938 C72.0713333,65.7046667 70.1146667,65.088 67.608,65.088 L67.608,65.088 L60.028,65.088 L60.048,65.288 L60.288,65.288 C60.6213333,65.288 60.918,65.398 61.178,65.618 C61.438,65.838 61.568,66.108 61.568,66.428 L61.568,66.428 L61.568,77.628 C61.5546667,77.9746667 61.4246667,78.2713333 61.178,78.518 C60.9313333,78.7646667 60.6346667,78.888 60.288,78.888 L60.288,78.888 L60.028,78.888 L60.028,79.088 L67.608,79.088 Z M67.208,78.088 L65.668,78.088 L65.668,66.088 L67.208,66.088 C68.448,66.088 69.4213333,66.618 70.128,67.678 C70.8346667,68.738 71.188,70.208 71.188,72.088 C71.188,73.968 70.8346667,75.438 70.128,76.498 C69.4213333,77.558 68.448,78.088 67.208,78.088 L67.208,78.088 Z"/>
  </g>
</svg>
